<svg width="38" height="26" viewBox="0 0 38 26" fill="none" xmlns="http://www.w3.org/2000/svg">
<path fill-rule="evenodd" clip-rule="evenodd" d="M30.2701 9.99467C29.2274 4.70467 24.5814 0.733337 19.0001 0.733337C14.5688 0.733337 10.7201 3.248 8.80343 6.928C4.1881 7.41867 0.600098 11.3287 0.600098 16.0667C0.600098 21.142 4.72476 25.2667 9.8001 25.2667H29.7334C33.9654 25.2667 37.4001 21.832 37.4001 17.6C37.4001 13.552 34.2568 10.2707 30.2701 9.99467ZM17.0221 19.578C16.4241 20.176 15.4581 20.176 14.8601 19.578L11.6401 16.3733C11.353 16.0869 11.1916 15.6979 11.1916 15.2923C11.1916 14.8867 11.353 14.4978 11.6401 14.2113C12.2381 13.6133 13.2041 13.6133 13.8021 14.2113L15.9334 16.3427L22.8028 9.47334C23.4008 8.87534 24.3668 8.87534 24.9648 9.47334C25.5628 10.0713 25.5628 11.0373 24.9648 11.6353L17.0221 19.578Z" fill="#83DD74"/>
</svg>
