<svg width="10" height="12" viewBox="0 0 10 12" fill="none" xmlns="http://www.w3.org/2000/svg">
<path fill-rule="evenodd" clip-rule="evenodd" d="M1.40005 10.2C1.40005 10.86 1.94005 11.4 2.60005 11.4H7.40005C8.06005 11.4 8.60005 10.86 8.60005 10.2V4.19998C8.60005 3.53998 8.06005 2.99998 7.40005 2.99998H2.60005C1.94005 2.99998 1.40005 3.53998 1.40005 4.19998V10.2ZM8.60005 1.19998H7.10005L6.67405 0.773976C6.56605 0.665976 6.41005 0.599976 6.25405 0.599976H3.74605C3.59005 0.599976 3.43405 0.665976 3.32605 0.773976L2.90005 1.19998H1.40005C1.07005 1.19998 0.800049 1.46998 0.800049 1.79998C0.800049 2.12998 1.07005 2.39998 1.40005 2.39998H8.60005C8.93005 2.39998 9.20005 2.12998 9.20005 1.79998C9.20005 1.46998 8.93005 1.19998 8.60005 1.19998Z" fill="#454752"/>
</svg>
