<svg width="10" height="11" viewBox="0 0 10 11" fill="none" xmlns="http://www.w3.org/2000/svg">
<path fill-rule="evenodd" clip-rule="evenodd" d="M7.75405 3.80001H6.80005V0.800012C6.80005 0.470012 6.53005 0.200012 6.20005 0.200012H3.80005C3.47005 0.200012 3.20005 0.470012 3.20005 0.800012V3.80001H2.24605C1.71205 3.80001 1.44205 4.44801 1.82005 4.82601L4.57405 7.58001C4.80805 7.81401 5.18605 7.81401 5.42005 7.58001L8.17405 4.82601C8.55205 4.44801 8.28805 3.80001 7.75405 3.80001ZM0.800049 9.80001C0.800049 10.13 1.07005 10.4 1.40005 10.4H8.60005C8.93005 10.4 9.20005 10.13 9.20005 9.80001C9.20005 9.47001 8.93005 9.20001 8.60005 9.20001H1.40005C1.07005 9.20001 0.800049 9.47001 0.800049 9.80001Z" fill="#454752"/>
</svg>
