<svg width="37" height="25" viewBox="0 0 37 25" fill="none" xmlns="http://www.w3.org/2000/svg">
<path fill-rule="evenodd" clip-rule="evenodd" d="M29.67 9.26133C28.6273 3.97133 23.9813 0 18.4 0C13.9687 0 10.12 2.51467 8.20333 6.19467C3.588 6.68533 0 10.5953 0 15.3333C0 20.4087 4.12467 24.5333 9.2 24.5333H29.1333C33.3653 24.5333 36.8 21.0987 36.8 16.8667C36.8 12.8187 33.6567 9.53733 29.67 9.26133ZM12.9824 20.6535C13.5911 21.2155 14.5401 21.1776 15.1021 20.569L18.3865 17.0118L21.6728 20.6009C22.2322 21.2119 23.181 21.2536 23.792 20.6942C24.403 20.1347 24.4448 19.1859 23.8854 18.5749L20.4287 14.7998L23.9209 11.0176C24.4829 10.409 24.4451 9.45996 23.8364 8.89798C23.2277 8.336 22.2787 8.37384 21.7168 8.9825L18.3957 12.5794L15.1063 8.98701C14.5468 8.37601 13.598 8.33423 12.987 8.89368C12.376 9.45312 12.3342 10.4019 12.8937 11.0129L16.3534 14.7914L12.8979 18.5338C12.3359 19.1425 12.3738 20.0915 12.9824 20.6535Z" fill="#C90909"/>
</svg>
